<?xml version="1.0" encoding="UTF-8"?> <svg xmlns="http://www.w3.org/2000/svg" width="133" height="133" viewBox="0 0 133 133" fill="none"> <path d="M55.212 125.013C43.3688 123.526 32.1991 118.678 23.0238 111.043C13.8485 103.409 7.05133 93.3063 3.43594 81.9307C-0.179447 70.5552 -0.461803 58.3823 2.62226 46.8514C5.70632 35.3204 12.0278 24.9138 20.8393 16.8619C29.6507 8.81008 40.5835 3.4498 52.3451 1.41492C64.1066 -0.61996 76.2048 0.755667 87.2092 5.37914C98.2136 10.0026 107.664 17.6806 114.443 27.5051C121.222 37.3296 125.045 48.8898 125.462 60.8188" stroke="white"></path> <path d="M120.112 63.7855L128.487 64.4328L128.209 68.0341C128.139 68.9434 127.9 69.6431 127.493 70.1332C127.086 70.6233 126.532 70.8412 125.83 70.7869C125.144 70.7339 124.637 70.4459 124.308 69.9231C123.987 69.4008 123.858 68.7369 123.92 67.9313L124.262 68.1744C124.19 69.1076 123.948 69.807 123.535 70.2725C123.129 70.7466 122.571 70.9563 121.861 70.9014C121.143 70.8459 120.601 70.5392 120.235 69.9814C119.876 69.4321 119.737 68.643 119.816 67.614L120.112 63.7855ZM120.966 65.043L120.763 67.6632C120.714 68.3013 120.793 68.7888 120.999 69.1257C121.213 69.4712 121.564 69.6628 122.05 69.7004C122.537 69.738 122.904 69.6019 123.153 69.2922C123.401 68.9904 123.55 68.5205 123.599 67.8824L123.802 65.2622L120.966 65.043ZM124.711 65.3325L124.53 67.6655C124.485 68.2478 124.567 68.6994 124.775 69.0204C124.982 69.3493 125.309 69.5311 125.756 69.5656C126.21 69.6007 126.565 69.4717 126.821 69.1785C127.075 68.8933 127.225 68.4596 127.27 67.8773L127.451 65.5443L124.711 65.3325Z" fill="white"></path> <path d="M118.327 76.367C118.475 75.7445 118.714 75.1928 119.042 74.7119C119.377 74.2407 119.777 73.8551 120.244 73.5551C120.716 73.2648 121.231 73.0711 121.789 72.9739C122.347 72.8767 122.929 72.9005 123.536 73.0454C124.143 73.1902 124.673 73.4319 125.127 73.7705C125.581 74.1091 125.948 74.5175 126.229 74.9957C126.517 75.4757 126.7 76.0006 126.778 76.5702C126.862 77.1495 126.83 77.7504 126.681 78.3729C126.531 79.0032 126.284 79.5569 125.939 80.0341C125.601 80.5209 125.177 80.9009 124.668 81.1742L124.114 80.24C124.515 80.0067 124.84 79.7141 125.088 79.3622C125.344 79.0121 125.525 78.6153 125.631 78.1717C125.741 77.7126 125.765 77.2661 125.704 76.8321C125.641 76.4058 125.504 76.0154 125.293 75.6606C125.081 75.3058 124.801 75.0003 124.451 74.7441C124.106 74.4975 123.709 74.3203 123.257 74.2126C122.806 74.1049 122.367 74.0824 121.941 74.1452C121.521 74.2177 121.136 74.3644 120.787 74.5855C120.439 74.8066 120.14 75.0931 119.891 75.445C119.641 75.8047 119.461 76.2141 119.352 76.6732C119.246 77.1168 119.224 77.5517 119.287 77.9779C119.358 78.406 119.523 78.8155 119.783 79.2066L118.867 79.7899C118.536 79.3161 118.325 78.7847 118.236 78.1958C118.144 77.6147 118.174 77.0051 118.327 76.367Z" fill="white"></path> <path d="M120.98 84.473L119.342 88.4703L118.398 88.0835L120.036 84.0862L120.98 84.473ZM117.486 83.1577L115.629 87.6881L114.663 87.2922L116.975 81.6515L124.748 84.8368L122.5 90.322L121.534 89.9261L123.327 85.5512L117.486 83.1577Z" fill="white"></path> <path d="M112.113 92.2432L118.995 97.0595L114.846 102.988L107.964 98.1716L108.638 97.2081L114.921 101.605L114.5 101.662L117.631 97.1884L117.714 97.6131L111.432 93.2165L112.113 92.2432Z" fill="white"></path> <path d="M106.227 100.323L112.231 106.198L109.94 108.539C109.425 109.065 108.903 109.433 108.374 109.643C107.844 109.852 107.324 109.903 106.814 109.795C106.304 109.688 105.831 109.421 105.397 108.996C104.962 108.571 104.685 108.104 104.567 107.597C104.454 107.094 104.493 106.573 104.686 106.034C104.883 105.5 105.24 104.97 105.754 104.444L107.584 102.574L107.609 103.355L105.388 101.181L106.227 100.323ZM107.524 103.271L108.33 103.304L106.526 105.148C105.989 105.697 105.7 106.227 105.661 106.736C105.615 107.251 105.807 107.719 106.236 108.138C106.665 108.558 107.136 108.74 107.65 108.683C108.159 108.632 108.682 108.332 109.219 107.784L111.023 105.939L111.075 106.745L107.524 103.271Z" fill="white"></path> <path d="M96.7015 108.857C97.219 108.48 97.7646 108.217 98.338 108.067C98.905 107.922 99.4632 107.887 100.013 107.962C100.567 108.044 101.087 108.229 101.574 108.518C102.061 108.806 102.486 109.2 102.848 109.698C103.211 110.196 103.454 110.721 103.579 111.273C103.704 111.826 103.717 112.375 103.62 112.921C103.527 113.473 103.324 113.996 103.011 114.491C102.698 114.986 102.28 115.424 101.756 115.805C101.238 116.181 100.699 116.44 100.139 116.581C99.5763 116.732 99.0182 116.767 98.4641 116.686C97.9083 116.615 97.3901 116.433 96.9095 116.14C96.4225 115.851 95.9954 115.454 95.6284 114.95C95.2613 114.445 95.0154 113.917 94.8907 113.364C94.7594 112.817 94.7435 112.265 94.8428 111.708C94.9404 111.162 95.1457 110.641 95.4585 110.147C95.7696 109.663 96.1839 109.233 96.7015 108.857ZM97.3297 109.72C96.9545 109.993 96.6555 110.31 96.4326 110.67C96.2032 111.035 96.0568 111.418 95.9933 111.82C95.9281 112.234 95.9461 112.646 96.0473 113.057C96.142 113.473 96.3258 113.869 96.5988 114.244C96.8717 114.619 97.1914 114.916 97.5579 115.134C97.9179 115.357 98.3023 115.498 98.711 115.556C99.1181 115.626 99.5304 115.608 99.948 115.502C100.359 115.401 100.752 115.214 101.127 114.941C101.509 114.664 101.815 114.342 102.044 113.978C102.267 113.618 102.411 113.231 102.476 112.818C102.546 112.411 102.534 111.999 102.439 111.583C102.338 111.172 102.151 110.779 101.878 110.404C101.605 110.029 101.288 109.729 100.928 109.507C100.562 109.288 100.172 109.147 99.7585 109.081C99.3498 109.023 98.9398 109.044 98.5287 109.145C98.1111 109.251 97.7114 109.443 97.3297 109.72Z" fill="white"></path> <path d="M92.742 117.194L88.892 119.154L88.4293 118.245L92.2793 116.285L92.742 117.194ZM90.9528 113.917L86.5895 116.138L86.1159 115.208L91.5487 112.443L95.359 119.929L90.076 122.618L89.6024 121.687L93.816 119.543L90.9528 113.917Z" fill="white"></path> <path d="M78.9103 117.788L83.0987 120.77L82.3626 121.643L77.6107 118.216L78.9103 117.788ZM84.2796 116.023L86.9027 124.003L85.7856 124.371L83.1624 116.391L84.2796 116.023ZM84.6586 119.789L84.9884 120.793L82.4006 121.643L82.0708 120.64L84.6586 119.789ZM82.0502 121.038L83.1515 120.853L81.5904 125.75L80.3706 126.151L82.0502 121.038Z" fill="white"></path> <path d="M73.8473 118.979L75.1686 126.532L74.8193 126.276L77.9399 125.73L78.1198 126.759L71.2994 127.952L71.1195 126.923L74.2401 126.378L74.0102 126.735L72.6889 119.181L73.8473 118.979Z" fill="white"></path> <path d="M64.9779 125.459C63.9859 125.466 63.2202 125.248 62.6808 124.804C62.1414 124.368 61.8683 123.711 61.8615 122.831C61.8543 121.903 62.1409 121.196 62.7212 120.712C63.2935 120.235 64.1037 119.993 65.1516 119.985L68.6195 119.958L68.6844 128.358L67.4964 128.367L67.4738 125.439L64.9779 125.459ZM65.207 120.933C64.511 120.938 63.9802 121.098 63.6146 121.413C63.241 121.728 63.0566 122.189 63.0613 122.797C63.0659 123.389 63.2532 123.824 63.6234 124.101C63.9935 124.378 64.5306 124.514 65.2346 124.509L67.4665 124.491L67.4389 120.915L65.207 120.933ZM60.5078 120.021L60.5726 128.421L59.3847 128.43L59.3198 120.03L60.5078 120.021Z" fill="white"></path> </svg> 