<?xml version="1.0" encoding="UTF-8"?> <!-- Generator: Adobe Illustrator 25.3.1, SVG Export Plug-In . SVG Version: 6.00 Build 0) --> <svg xmlns="http://www.w3.org/2000/svg" xmlns:xlink="http://www.w3.org/1999/xlink" id="Слой_1" x="0px" y="0px" viewBox="0 0 563.72 110.3" style="enable-background:new 0 0 563.72 110.3;" xml:space="preserve"> <style type="text/css"> .st0{fill:#152F4E;} .st1{fill:#FFFFFF;} .st2{clip-path:url(#SVGID_2_);fill:#FFFFFF;} </style> <g> <g> <path class="st0" d="M104.44,55.69c0,27.96-22.66,50.62-50.62,50.62S3.21,83.64,3.21,55.69S25.87,5.07,53.83,5.07 S104.44,27.73,104.44,55.69"></path> </g> <path class="st1" d="M103.18,62.91L87.44,60.3v0l0,0v-6.93l-0.25-0.07v6.96l0,0v0l-25.7-4.27V45.67l30.29,8.98 c0.07,0.02,0.14-0.02,0.15-0.08c0.02-0.07-0.02-0.14-0.08-0.15l-4.41-1.31v0l0,0v-4.8l15.41,5.56l0.04,0.01 c0.05,0,0.1-0.03,0.12-0.08c0.02-0.06-0.01-0.14-0.08-0.16l-15.49-5.59v0l-0.02-0.01L55.15,36.38V24.09l32.04,17.29v0l0,0v6.56 l0.25,0.09v-6.52l-0.19-0.1l0.01,0.01l2.45,1.32c0.06,0.03,0.14,0.01,0.17-0.05c0.03-0.06,0.01-0.14-0.05-0.17l-2.39-1.29v0l0,0 V28.8c0-0.07-0.06-0.12-0.12-0.12c-0.07,0-0.12,0.06-0.12,0.12v12.3l0.18,0.1l-0.18-0.1v0l-25.7-13.87V11.57 c0-0.07-0.06-0.12-0.12-0.12c-0.07,0-0.12,0.06-0.12,0.12V27.1l0.11,0.06l-0.04-0.02l-0.07-0.04v0l-6.1-3.29V15.6 c0-0.07-0.06-0.12-0.12-0.12c-0.07,0-0.12,0.06-0.12,0.12v8.21l-3.53,1.92V12.27c0-0.07-0.06-0.12-0.12-0.12 c-0.07,0-0.12,0.06-0.12,0.12v13.6l0.1-0.05L22.24,41.6V26.11c0-0.07-0.06-0.12-0.12-0.12c-0.07,0-0.12,0.06-0.12,0.12v15.62 L8.33,49.17c-0.06,0.03-0.08,0.11-0.05,0.17c0.02,0.04,0.07,0.07,0.11,0.07l0.06-0.02l13.55-7.38l0,6.1v0v5.12l-0.02,0v0 l-8.85,1.76c-0.07,0.01-0.11,0.08-0.1,0.15c0.01,0.06,0.06,0.1,0.12,0.1l0.02,0l8.8-1.75v6.4l-2.47,0.25 c-0.07,0.01-0.12,0.07-0.11,0.14c0.01,0.07,0.07,0.12,0.14,0.11L22,60.15v0l0,0v5.11l0.09,0.01L22,65.25v0L5.08,63.62 c-0.06-0.01-0.13,0.04-0.14,0.11c-0.01,0.07,0.04,0.13,0.11,0.14l16.92,1.64v6.59l-9.08-2.26c-0.07-0.02-0.13,0.02-0.15,0.09 c-0.02,0.07,0.02,0.13,0.09,0.15L22,72.35v9.03c0,0.07,0.06,0.12,0.12,0.12c0.07,0,0.12-0.06,0.12-0.12v-8.97l0,0v0l28.78,7.15v0 l0.2,0.05l0,0l0.03,0.01l0,0l-0.03-0.01l-0.2-0.05v6.39c0,0.07,0.06,0.12,0.12,0.12c0.07,0,0.12-0.06,0.12-0.12v-6.34l0,0l0,0 l3.63-0.81v9.51c0,0.07,0.06,0.12,0.12,0.12c0.07,0,0.12-0.06,0.12-0.12v-9.56l28.28-6.32v9.96c0,0.07,0.06,0.12,0.12,0.12 c0.07,0,0.12-0.06,0.12-0.12V72.37l3.51-0.78v12.39c0,0.07,0.06,0.12,0.12,0.12c0.07,0,0.12-0.06,0.12-0.12V71.53l8.33-1.86 c0.07-0.02,0.11-0.08,0.09-0.15c-0.02-0.07-0.08-0.11-0.15-0.09l-8.27,1.85v0l0,0V60.55l0,0v0l15.7,2.61l0.02,0 c0.06,0,0.11-0.04,0.12-0.1C103.29,62.99,103.25,62.92,103.18,62.91z M51.36,68.1l-0.09-0.01V57.21l0,0v0l3.63-0.36v11.01 L51.36,68.1z M51.25,79.37L51.25,79.37L51.25,79.37L51.25,79.37L51.25,79.37l0-11.03l0,0L51.25,79.37L51.25,79.37L51.25,79.37z M51.27,47.42v-9.48l-0.12,0.04l0.12-0.04v0l3.63-1.26V46.7L51.27,47.42z M24.28,47.32l26.74-9.28v0l0,0v9.44v0l-28.78,5.72v-5.16 l-0.14,0.05L24.28,47.32z M61.49,38.94l25.7,9.27v0l0,0v4.82l-25.7-7.62V38.94z M61.24,38.85v6.59l-6.1,1.21v-10L61.24,38.85z M22.24,65.28v-5.16l0,0v0l28.78-2.89v0l0,0v10.83l0.25,0.02l-0.14-0.01l-0.11-0.01v0L22.24,65.28L22.24,65.28L22.24,65.28z M51.27,79.36L51.27,79.36L51.27,79.36l0-11.03l0.08,0.01l32.08-2.23v6.06L51.27,79.36z M87.19,71.33L87.19,71.33L87.19,71.33 l-3.51,0.78v-8.77c0-0.07-0.06-0.12-0.12-0.12c-0.07,0-0.12,0.06-0.12,0.12v2.52l-28.28,1.97V56.82l6.1-0.61v5.07 c0,0.07,0.06,0.12,0.12,0.12c0.07,0,0.12-0.06,0.12-0.12v-5.05l25.7,4.27v0l0,0V71.33z"></path> <g> <defs> <path id="SVGID_1_" d="M3,55.61c0,26.81,20.79,48.77,47.14,50.62h7.23c25.29-1.78,45.47-22.09,47.04-47.45v-6.36 C102.76,25.88,80.71,4.86,53.75,4.86C25.72,4.86,3,27.58,3,55.61"></path> </defs> <clipPath id="SVGID_2_"> <use xlink:href="#SVGID_1_" style="overflow:visible;"></use> </clipPath> <rect x="6.75" y="138.71" class="st2" width="112.87" height="15.19"></rect> </g> </g> <g> <polygon class="st0" points="126.93,71.66 134.48,71.66 134.48,43.31 149.31,43.31 149.31,71.66 156.87,71.66 156.87,36.73 126.93,36.73 "></polygon> <path class="st0" d="M202.57,38.25c-2.13-1.02-4.66-1.52-7.6-1.52h-14.22v34.94h7.6v-9.63h6.62c2.94,0,5.47-0.51,7.6-1.52 c2.13-1.02,3.77-2.47,4.93-4.37c1.16-1.9,1.74-4.14,1.74-6.74c0-2.63-0.58-4.89-1.74-6.79C206.34,40.72,204.7,39.26,202.57,38.25z M199.8,53.84c-1.16,1.07-2.91,1.6-5.26,1.6h-6.19V43.31h6.19c2.35,0,4.1,0.53,5.26,1.6c1.16,1.07,1.73,2.56,1.73,4.49 C201.54,51.3,200.96,52.78,199.8,53.84z"></path> <polygon class="st0" points="237.53,59.48 237.53,36.72 229.97,36.72 229.97,71.66 237.15,71.66 252.83,48.95 252.83,71.66 260.33,71.66 260.33,36.72 253.2,36.72 "></polygon> <path class="st0" d="M312.72,41.27c-1.61-1.63-3.5-2.89-5.68-3.79c-2.18-0.9-4.56-1.35-7.16-1.35c-2.57,0-4.94,0.45-7.13,1.35 c-2.19,0.9-4.1,2.16-5.72,3.79c-1.63,1.63-2.89,3.54-3.78,5.74c-0.89,2.2-1.33,4.59-1.33,7.19c0,2.6,0.44,4.99,1.33,7.19 c0.89,2.2,2.14,4.11,3.76,5.74c1.61,1.63,3.52,2.89,5.72,3.79c2.2,0.9,4.61,1.35,7.2,1.35c2.56,0,4.93-0.45,7.11-1.35 c2.17-0.9,4.07-2.15,5.68-3.77c1.61-1.61,2.87-3.53,3.78-5.74c0.91-2.21,1.36-4.62,1.36-7.21c0-2.63-0.45-5.03-1.36-7.21 C315.59,44.8,314.33,42.9,312.72,41.27z M309.39,58.73c-0.51,1.36-1.24,2.55-2.18,3.55c-0.94,1-2.02,1.76-3.26,2.29 c-1.23,0.53-2.59,0.8-4.06,0.8c-1.47,0-2.83-0.27-4.08-0.8c-1.25-0.53-2.34-1.3-3.26-2.29c-0.92-1-1.64-2.19-2.16-3.57 c-0.52-1.38-0.77-2.89-0.77-4.52c0-1.66,0.26-3.18,0.77-4.54c0.52-1.36,1.25-2.55,2.18-3.54c0.94-1,2.02-1.76,3.26-2.3 c1.24-0.53,2.59-0.8,4.06-0.8c1.47,0,2.83,0.27,4.08,0.8c1.25,0.53,2.34,1.3,3.26,2.3c0.92,1,1.64,2.18,2.16,3.54 c0.52,1.36,0.78,2.88,0.78,4.54C310.17,55.86,309.91,57.37,309.39,58.73z"></path> <path class="st0" d="M361.26,38.25c-2.13-1.02-4.66-1.52-7.6-1.52h-14.22v34.94h7.6v-9.63h6.62c2.94,0,5.47-0.51,7.6-1.52 c2.13-1.02,3.77-2.47,4.93-4.37c1.16-1.9,1.74-4.14,1.74-6.74c0-2.63-0.58-4.89-1.74-6.79C365.04,40.72,363.39,39.26,361.26,38.25z M358.5,53.84c-1.16,1.07-2.91,1.6-5.26,1.6h-6.19V43.31h6.19c2.35,0,4.1,0.53,5.26,1.6c1.15,1.07,1.73,2.56,1.73,4.49 C360.23,51.3,359.65,52.78,358.5,53.84z"></path> <polygon class="st0" points="396.22,59.48 396.22,36.72 388.67,36.72 388.67,71.66 395.85,71.66 411.52,48.95 411.52,71.66 419.03,71.66 419.03,36.72 411.89,36.72 "></polygon> <polygon class="st0" points="439.53,43.31 450,43.31 450,71.66 457.5,71.66 457.5,43.31 468.02,43.31 468.02,36.73 439.53,36.73 "></polygon> <polygon class="st0" points="496.08,57.09 511.33,57.09 511.33,50.8 496.08,50.8 496.08,43.21 513.34,43.21 513.34,36.73 488.52,36.73 488.52,71.66 513.96,71.66 513.96,65.17 496.08,65.17 "></polygon> <polygon class="st0" points="531.76,36.73 531.76,43.31 542.22,43.31 542.22,71.66 549.73,71.66 549.73,43.31 560.24,43.31 560.24,36.73 "></polygon> </g> </svg> 