<?xml version="1.0" encoding="UTF-8"?> <svg xmlns="http://www.w3.org/2000/svg" width="564" height="111" viewBox="0 0 564 111" fill="none"> <path d="M104.44 55.6899C104.44 83.6499 81.78 106.31 53.82 106.31C25.86 106.31 3.21002 83.6399 3.21002 55.6899C3.21002 27.7399 25.87 5.06995 53.83 5.06995C81.79 5.06995 104.44 27.7299 104.44 55.6899Z" fill="#152F4E"></path> <path d="M103.18 62.91L87.44 60.2999V53.3699L87.19 53.2999V60.2599L61.49 55.99V45.6699L91.78 54.65C91.85 54.67 91.92 54.63 91.93 54.57C91.95 54.5 91.91 54.4299 91.85 54.4199L87.44 53.11V48.31L102.85 53.8699L102.89 53.88C102.94 53.88 102.99 53.8499 103.01 53.7999C103.03 53.7399 103 53.66 102.93 53.6399L87.44 48.0499L87.42 48.04L55.15 36.38V24.09L87.19 41.38V47.9399L87.44 48.0299V41.5099L87.25 41.41L87.26 41.4199L89.71 42.74C89.77 42.77 89.85 42.7499 89.88 42.6899C89.91 42.6299 89.89 42.55 89.83 42.52L87.44 41.2299V28.7999C87.44 28.7299 87.38 28.68 87.32 28.68C87.25 28.68 87.2 28.74 87.2 28.7999V41.0999L61.5 27.23V11.57C61.5 11.5 61.44 11.45 61.38 11.45C61.31 11.45 61.26 11.51 61.26 11.57V27.1L61.37 27.16L61.33 27.14L61.26 27.1L55.16 23.81V15.6C55.16 15.53 55.1 15.48 55.04 15.48C54.97 15.48 54.92 15.54 54.92 15.6V23.81L51.39 25.73V12.27C51.39 12.2 51.33 12.15 51.27 12.15C51.2 12.15 51.15 12.21 51.15 12.27V25.87L51.25 25.82L22.24 41.5999V26.11C22.24 26.04 22.18 25.99 22.12 25.99C22.05 25.99 22 26.05 22 26.11V41.7299L8.32999 49.1699C8.26999 49.1999 8.24999 49.2799 8.27999 49.34C8.29999 49.38 8.35 49.41 8.39 49.41L8.44999 49.3899L22 42.0099V48.11V53.2299H21.98L13.13 54.99C13.06 55 13.02 55.07 13.03 55.1399C13.04 55.2 13.09 55.24 13.15 55.24H13.17L21.97 53.49V59.8899L19.5 60.1399C19.43 60.1499 19.38 60.2099 19.39 60.2799C19.4 60.3499 19.46 60.3999 19.53 60.3899L22 60.15V65.26L22.09 65.2699L22 65.25L5.07999 63.6199C5.01999 63.61 4.94999 63.66 4.93999 63.7299C4.92999 63.7999 4.98 63.86 5.05 63.8699L21.97 65.51V72.0999L12.89 69.8399C12.82 69.8199 12.76 69.86 12.74 69.93C12.72 70 12.76 70.06 12.83 70.08L22 72.3499V81.38C22 81.45 22.06 81.5 22.12 81.5C22.19 81.5 22.24 81.4399 22.24 81.38V72.41L51.02 79.56V85.95C51.02 86.02 51.08 86.07 51.14 86.07C51.21 86.07 51.26 86.0099 51.26 85.95V79.61L54.89 78.8V88.31C54.89 88.38 54.95 88.43 55.01 88.43C55.08 88.43 55.13 88.3699 55.13 88.31V78.75L83.41 72.43V82.39C83.41 82.46 83.47 82.51 83.53 82.51C83.6 82.51 83.65 82.45 83.65 82.39V72.37L87.16 71.5899V83.98C87.16 84.05 87.22 84.1 87.28 84.1C87.35 84.1 87.4 84.04 87.4 83.98V71.5299L95.73 69.6699C95.8 69.6499 95.84 69.5899 95.82 69.5199C95.8 69.4499 95.74 69.41 95.67 69.43L87.4 71.2799V60.5499L103.1 63.16H103.12C103.18 63.16 103.23 63.12 103.24 63.06C103.29 62.99 103.25 62.9199 103.18 62.91ZM51.36 68.0999L51.27 68.0899V57.2099L54.9 56.8499V67.86L51.36 68.0999ZM51.27 47.4199V37.9399L54.9 36.68V46.7L51.27 47.4199ZM24.28 47.32L51.02 38.04V47.4799L22.24 53.2V48.04L22.1 48.09L24.28 47.32ZM61.49 38.9399L87.19 48.2099V53.0299L61.49 45.41V38.9399ZM61.24 38.8499V45.4399L55.14 46.65V36.65L61.24 38.8499ZM22.24 65.2799V60.1199L51.02 57.2299V68.0599L51.27 68.08L51.13 68.07L51.02 68.0599L22.24 65.2799ZM51.27 79.36V68.33L51.35 68.3399L83.43 66.11V72.1699L51.27 79.36ZM87.19 71.33L83.68 72.11V63.34C83.68 63.27 83.62 63.22 83.56 63.22C83.49 63.22 83.44 63.2799 83.44 63.34V65.86L55.16 67.83V56.82L61.26 56.2099V61.2799C61.26 61.3499 61.32 61.4 61.38 61.4C61.45 61.4 61.5 61.34 61.5 61.2799V56.2299L87.2 60.5V71.33H87.19Z" fill="white"></path> <path d="M126.93 71.66H134.48V43.31H149.31V71.66H156.87V36.73H126.93V71.66Z" fill="#152F4E"></path> <path d="M202.57 38.25C200.44 37.23 197.91 36.73 194.97 36.73H180.75V71.67H188.35V62.04H194.97C197.91 62.04 200.44 61.53 202.57 60.52C204.7 59.5 206.34 58.05 207.5 56.15C208.66 54.25 209.24 52.01 209.24 49.41C209.24 46.78 208.66 44.52 207.5 42.62C206.34 40.72 204.7 39.26 202.57 38.25ZM199.8 53.84C198.64 54.91 196.89 55.44 194.54 55.44H188.35V43.31H194.54C196.89 43.31 198.64 43.84 199.8 44.91C200.96 45.98 201.53 47.47 201.53 49.4C201.54 51.3 200.96 52.78 199.8 53.84Z" fill="#152F4E"></path> <path d="M237.53 59.48V36.72H229.97V71.66H237.15L252.83 48.95V71.66H260.33V36.72H253.2L237.53 59.48Z" fill="#152F4E"></path> <path d="M312.72 41.27C311.11 39.64 309.22 38.38 307.04 37.48C304.86 36.58 302.48 36.13 299.88 36.13C297.31 36.13 294.94 36.58 292.75 37.48C290.56 38.38 288.65 39.64 287.03 41.27C285.4 42.9 284.14 44.81 283.25 47.01C282.36 49.21 281.92 51.6 281.92 54.2C281.92 56.8 282.36 59.19 283.25 61.39C284.14 63.59 285.39 65.5 287.01 67.13C288.62 68.76 290.53 70.02 292.73 70.92C294.93 71.82 297.34 72.27 299.93 72.27C302.49 72.27 304.86 71.82 307.04 70.92C309.21 70.02 311.11 68.77 312.72 67.15C314.33 65.54 315.59 63.62 316.5 61.41C317.41 59.2 317.86 56.79 317.86 54.2C317.86 51.57 317.41 49.17 316.5 46.99C315.59 44.8 314.33 42.9 312.72 41.27ZM309.39 58.73C308.88 60.09 308.15 61.28 307.21 62.28C306.27 63.28 305.19 64.04 303.95 64.57C302.72 65.1 301.36 65.37 299.89 65.37C298.42 65.37 297.06 65.1 295.81 64.57C294.56 64.04 293.47 63.27 292.55 62.28C291.63 61.28 290.91 60.09 290.39 58.71C289.87 57.33 289.62 55.82 289.62 54.19C289.62 52.53 289.88 51.01 290.39 49.65C290.91 48.29 291.64 47.1 292.57 46.11C293.51 45.11 294.59 44.35 295.83 43.81C297.07 43.28 298.42 43.01 299.89 43.01C301.36 43.01 302.72 43.28 303.97 43.81C305.22 44.34 306.31 45.11 307.23 46.11C308.15 47.11 308.87 48.29 309.39 49.65C309.91 51.01 310.17 52.53 310.17 54.19C310.17 55.86 309.91 57.37 309.39 58.73Z" fill="#152F4E"></path> <path d="M361.26 38.25C359.13 37.23 356.6 36.73 353.66 36.73H339.44V71.67H347.04V62.04H353.66C356.6 62.04 359.13 61.53 361.26 60.52C363.39 59.5 365.03 58.05 366.19 56.15C367.35 54.25 367.93 52.01 367.93 49.41C367.93 46.78 367.35 44.52 366.19 42.62C365.04 40.72 363.39 39.26 361.26 38.25ZM358.5 53.84C357.34 54.91 355.59 55.44 353.24 55.44H347.05V43.31H353.24C355.59 43.31 357.34 43.84 358.5 44.91C359.65 45.98 360.23 47.47 360.23 49.4C360.23 51.3 359.65 52.78 358.5 53.84Z" fill="#152F4E"></path> <path d="M396.22 59.48V36.72H388.67V71.66H395.85L411.52 48.95V71.66H419.03V36.72H411.89L396.22 59.48Z" fill="#152F4E"></path> <path d="M439.53 43.31H450V71.66H457.5V43.31H468.02V36.73H439.53V43.31Z" fill="#152F4E"></path> <path d="M496.08 57.09H511.33V50.8H496.08V43.21H513.34V36.73H488.52V71.66H513.96V65.17H496.08V57.09Z" fill="#152F4E"></path> <path d="M531.76 36.73V43.31H542.22V71.66H549.73V43.31H560.24V36.73H531.76Z" fill="#152F4E"></path> </svg> 