<?xml version="1.0" encoding="UTF-8"?> <svg xmlns="http://www.w3.org/2000/svg" width="338" height="338" viewBox="0 0 338 338" fill="none"> <circle cx="169" cy="169" r="169" fill="#152F4E"></circle> <path d="M270.811 252.544L221.545 201.305C234.212 186.246 241.152 167.3 241.152 147.576C241.152 101.493 203.659 64 157.576 64C111.493 64 74 101.493 74 147.576C74 193.659 111.493 231.152 157.576 231.152C174.876 231.152 191.363 225.934 205.458 216.029L255.099 267.657C257.174 269.812 259.964 271 262.955 271C265.786 271 268.471 269.921 270.509 267.959C274.841 263.791 274.979 256.879 270.811 252.544ZM157.576 85.8025C191.639 85.8025 219.35 113.513 219.35 147.576C219.35 181.639 191.639 209.35 157.576 209.35C123.513 209.35 95.8025 181.639 95.8025 147.576C95.8025 113.513 123.513 85.8025 157.576 85.8025Z" fill="white"></path> </svg> 